<?xml version="1.0" encoding="UTF-8" standalone="no"?>
<!DOCTYPE svg PUBLIC "-//W3C//DTD SVG 1.1//EN" "http://www.w3.org/Graphics/SVG/1.1/DTD/svg11.dtd">
<svg width="100%" height="100%" viewBox="0 0 476 62" version="1.1" xmlns="http://www.w3.org/2000/svg" xmlns:xlink="http://www.w3.org/1999/xlink" xml:space="preserve" xmlns:serif="http://www.serif.com/" style="fill-rule:evenodd;clip-rule:evenodd;stroke-miterlimit:22.9256;">
    <g transform="matrix(1,0,0,1,-68.7512,-727.567)">
        <g transform="matrix(1,0,0,1,0,336.685)">
            <path d="M394.081,400.297L394.251,397.98C384.891,396.064 385.011,402.641 387.079,404.641C388.506,406.022 392.016,406.29 392.111,408.079C392.242,410.569 388.313,409.885 386.557,409.216L386.219,411.698C396.26,413.901 395.917,407.321 394.34,405.431C393.028,403.858 389.686,403.465 389.108,402.315C388.526,401.158 389.362,400.222 390.384,399.977C391.733,399.653 392.777,400.213 394.081,400.297" style="fill:rgb(71,135,121);"/>
        </g>
        <g transform="matrix(1,0,0,1,0,336.309)">
            <path d="M534.001,397.884C525.246,398.153 524.785,412.766 534.811,412.525C543.692,412.311 544.052,397.575 534.001,397.884Z" style="fill:rgb(71,135,121);stroke:rgb(71,135,121);stroke-width:0.22px;"/>
        </g>
        <g transform="matrix(1,0,0,1,0,335.711)">
            <path d="M519.751,401.44L519.746,399.212C514.083,396.944 509.223,399.892 508.944,405.787C508.902,413.439 516.749,413.995 519.976,412.636L519.966,410.448C517.401,411.024 516.914,411.196 514.388,410.344C510.758,408.999 511.257,403.124 514.022,401.608C516.411,400.139 517.877,400.612 519.751,401.44Z" style="fill:rgb(71,135,121);stroke:rgb(71,135,121);stroke-width:0.22px;"/>
        </g>
        <g transform="matrix(-1,0,0,1,1068.7,336.37)">
            <ellipse cx="534.349" cy="405.141" rx="3.976" ry="5.119" style="fill:white;stroke:rgb(71,135,121);stroke-width:0.22px;"/>
        </g>
        <g transform="matrix(1,0,0,1,0,336.309)">
            <path d="M428.235,397.884C419.48,398.153 419.019,412.766 429.045,412.525C437.927,412.311 438.285,397.575 428.235,397.884" style="fill:rgb(71,135,121);"/>
        </g>
        <g transform="matrix(1,0,0,1,0,335.711)">
            <path d="M413.985,401.44L413.98,399.212C408.317,396.944 403.457,399.892 403.178,405.787C403.136,413.439 410.983,413.995 414.21,412.636L414.2,410.448C411.635,411.024 411.148,411.196 408.623,410.344C404.992,408.999 405.491,403.124 408.256,401.608C410.645,400.139 412.111,400.612 413.985,401.44" style="fill:rgb(71,135,121);"/>
        </g>
        <g transform="matrix(-1,0,0,1,857.166,336.37)">
            <path d="M428.583,400.021C426.387,400.021 424.608,402.313 424.608,405.141C424.608,407.968 426.387,410.26 428.583,410.26C430.779,410.26 432.559,407.968 432.559,405.141C432.559,402.313 430.779,400.021 428.583,400.021" style="fill:white;"/>
        </g>
        <g transform="matrix(1,0,0,1,0,379.875)">
            <path d="M507.491,357.569L508.432,352.582C499.963,344.082 479.167,345.744 482.743,364.909C451.153,387.551 484.457,426.615 516.995,401.325L527.91,408.382L532.427,408.382C505.712,391.567 496.125,382.943 489.613,373.378C483.567,366.026 482.585,358.499 486.578,353.5C479.498,367.976 503.12,386.086 535.909,408.288L542.872,408.288L542.331,407.676C539.419,407.099 537.018,406.104 535.109,404.712L521.561,395.632C524.545,389.49 525.587,382.83 524.807,375.683L538.008,375.703C538.431,376.035 538.773,376.23 538.946,376.624L542.31,372.248L541.44,372.413C540.174,373.206 540.086,373.11 538.9,373.189L510.175,373.118L508.093,375.718L522.126,375.73C523.023,381.901 522.21,388.071 519.844,394.243C509.667,387.788 500.412,380.074 492.603,371.236C478.33,356.923 496.038,340.161 506.765,356.51L507.491,357.569Z" style="fill:rgb(71,135,121);"/>
        </g>
        <g transform="matrix(1,0,0,1,0,387.417)">
            <path d="M483.288,359.919C472.644,368.604 473.325,378.772 483.759,390.219C493.582,398.375 504.016,399.315 515.094,392.665C500.475,380.804 488.623,370.431 483.288,359.919" style="fill:white;"/>
        </g>
        <g transform="matrix(1,0,0,1,0,404.094)">
            <path d="M473.126,355.851C468.633,373.374 487.305,386.706 503.426,382.293C486.734,382.394 474.856,372.969 473.126,355.851" style="fill:white;"/>
        </g>
        <g transform="matrix(1,0,0,1,0,336.251)">
            <path d="M460.483,398.095L471.304,398.095L471.304,400.307L467.352,400.307L467.352,412.304L464.382,412.304L464.435,400.212L460.53,400.212L460.483,398.095Z" style="fill:rgb(71,135,121);"/>
        </g>
        <g transform="matrix(1,0,0,1,0,336.251)">
            <path d="M442.981,398.095L453.802,398.095L453.802,400.307L449.85,400.307L449.85,412.304L446.88,412.304L446.933,400.212L443.028,400.212L442.981,398.095Z" style="fill:rgb(71,135,121);"/>
        </g>
        <g transform="matrix(1,0,0,1,0,361.859)">
            <path d="M68.869,391.196L465.086,391.185C466.396,391.211 467.171,391.009 468.05,390.385L468.967,390.161L465.556,394.631C465.439,394.227 465.015,393.894 464.592,393.69L68.751,393.737L68.869,391.196Z" style="fill:rgb(71,135,121);"/>
        </g>
        <g transform="matrix(1,0,0,1,0,304.761)">
            <text x="68.985px" y="445.549px" style="font-family:'Avenir-Heavy', 'Avenir', sans-serif;font-weight:900;font-size:9.388px;fill:rgb(71,135,121);">Cha</text>
            <text x="85.846px" y="445.549px" style="font-family:'Avenir-Heavy', 'Avenir', sans-serif;font-weight:900;font-size:9.388px;fill:rgb(71,135,121);">r</text>
            <text x="89.685px" y="445.549px" style="font-family:'Avenir-Heavy', 'Avenir', sans-serif;font-weight:900;font-size:9.388px;fill:rgb(71,135,121);">t</text>
            <text x="93.15px" y="445.549px" style="font-family:'Avenir-Heavy', 'Avenir', sans-serif;font-weight:900;font-size:9.388px;fill:rgb(71,135,121);">e</text>
            <text x="98.539px" y="445.549px" style="font-family:'Avenir-Heavy', 'Avenir', sans-serif;font-weight:900;font-size:9.388px;fill:rgb(71,135,121);">r</text>
            <text x="102.001px" y="445.549px" style="font-family:'Avenir-Heavy', 'Avenir', sans-serif;font-weight:900;font-size:9.388px;fill:rgb(71,135,121);">ed Su</text>
            <text x="126.861px" y="445.549px" style="font-family:'Avenir-Heavy', 'Avenir', sans-serif;font-weight:900;font-size:9.388px;fill:rgb(71,135,121);">r</text>
            <text x="130.876px" y="445.549px" style="font-family:'Avenir-Heavy', 'Avenir', sans-serif;font-weight:900;font-size:9.388px;fill:rgb(71,135,121);">v<tspan x="135.56px 140.76px " y="445.549px 445.549px ">ey</tspan></text>
            <text x="145.443px" y="445.549px" style="font-family:'Avenir-Heavy', 'Avenir', sans-serif;font-weight:900;font-size:9.388px;fill:rgb(71,135,121);">o</text>
            <text x="151.17px" y="445.549px" style="font-family:'Avenir-Heavy', 'Avenir', sans-serif;font-weight:900;font-size:9.388px;fill:rgb(71,135,121);">r</text>
            <text x="155.009px" y="445.549px" style="font-family:'Avenir-Heavy', 'Avenir', sans-serif;font-weight:900;font-size:9.388px;fill:rgb(71,135,121);">s and His</text>
            <text x="194.645px" y="445.549px" style="font-family:'Avenir-Heavy', 'Avenir', sans-serif;font-weight:900;font-size:9.388px;fill:rgb(71,135,121);">t</text>
            <text x="198.095px" y="445.549px" style="font-family:'Avenir-Heavy', 'Avenir', sans-serif;font-weight:900;font-size:9.388px;fill:rgb(71,135,121);">o</text>
            <text x="203.822px" y="445.549px" style="font-family:'Avenir-Heavy', 'Avenir', sans-serif;font-weight:900;font-size:9.388px;fill:rgb(71,135,121);">r</text>
            <text x="207.661px" y="445.549px" style="font-family:'Avenir-Heavy', 'Avenir', sans-serif;font-weight:900;font-size:9.388px;fill:rgb(71,135,121);">ic Building</text>
            <text x="256.197px" y="445.549px" style="font-family:'Avenir-Heavy', 'Avenir', sans-serif;font-weight:900;font-size:9.388px;fill:rgb(71,135,121);">C</text>
            <text x="262.419px" y="445.549px" style="font-family:'Avenir-Heavy', 'Avenir', sans-serif;font-weight:900;font-size:9.388px;fill:rgb(71,135,121);">onsultants</text>
        </g>
    </g>
</svg>
